<?xml version="1.0" encoding="utf-8"?>
<!-- Generator: Adobe Illustrator 16.0.4, SVG Export Plug-In . SVG Version: 6.00 Build 0)  -->
<!DOCTYPE svg PUBLIC "-//W3C//DTD SVG 1.1//EN" "http://www.w3.org/Graphics/SVG/1.1/DTD/svg11.dtd">
<svg version="1.1" id="Layer_1" xmlns="http://www.w3.org/2000/svg" xmlns:xlink="http://www.w3.org/1999/xlink" x="0px" y="0px"
	 width="32px" height="32px" viewBox="0 0 32 32" enable-background="new 0 0 32 32" xml:space="preserve">
<path d="M5.984,9.312h18.938c0.871,0,1.578-0.448,1.578-1s-0.707-1-1.578-1H5.984c-0.871,0-1.578,0.448-1.578,1
	S5.113,9.312,5.984,9.312z M24.922,12.438H5.984c-0.871,0-1.578,0.448-1.578,1s0.707,1,1.578,1h18.938c0.871,0,1.578-0.448,1.578-1
	S25.793,12.438,24.922,12.438z M24.922,17.562H5.984c-0.871,0-1.578,0.448-1.578,1s0.707,1,1.578,1h18.938
	c0.871,0,1.578-0.448,1.578-1S25.793,17.562,24.922,17.562z"/>
</svg>
